# xmcd
# 
# Track frame offsets:
#     150
#     13902
#     32703
#     48485
#     66304
#     83414
#     103921
#     115758
#     132082
#     150148
#     166704
#     185782
#     200708
#     219545
#     236279
# 
# Disc length: 3359
# 
# Revision: 8
# Processed by: cddbd v1.5.2PL0 Copyright (c) Steve Scherf et al.
# Submitted via: BonkEnc v1.0.6
# 
DISCID=c40d1d0f
DTITLE=Bruno e Marrone - Sonhos, Planos, Fantasias
DYEAR=2003
DGENRE=Sertaneja
TTITLE0=Credo em Cruz Ave-Maria
TTITLE1=Agora Vai
TTITLE2=Anjo de Amor
TTITLE3=Eu Queria
TTITLE4=Então Pode Ir
TTITLE5=Se Tiver Coragem Joga Fora
TTITLE6=Tá Liberado
TTITLE7=Menina
TTITLE8=Raio de Luar
TTITLE9=Cama Vazia
TTITLE10=Remar Contra a Maré
TTITLE11=Telefone Mudo
TTITLE12=Noite sem Sono
TTITLE13=Metade da Metade
TTITLE14=Ligação Urbana
EXTD=Incluindo o Sucesso Ligação Urbana
EXTT0=
EXTT1=
EXTT2=
EXTT3=
EXTT4=
EXTT5=
EXTT6=
EXTT7=
EXTT8=
EXTT9=
EXTT10=
EXTT11=
EXTT12=
EXTT13=Participação especial de Ana Paula
EXTT14=
PLAYORDER=
